inDegrees=no
num_controls=7
num_derivatives=13
num_iterations=94
num_multipliers=7
num_parameters=0
num_slacks=7
num_states=26
objective=0.469919
objective_accelerations=0.064414
objective_balance=0.002106
objective_effort=0.020427
objective_height=0.373416
objective_ligament=0.009556
solver_duration=1248.230355
status=Solve_Succeeded
success=true
DataType=double
version=3
OpenSimVersion=4.5
endheader
time	/jointset/ground_pelvis/pelvis_tilt/value	/jointset/ground_pelvis/pelvis_tx/value	/jointset/ground_pelvis/pelvis_ty/value	/jointset/hip_l/hip_flexion_l/value	/jointset/hip_l/hip_adduction_l/value	/jointset/hip_l/hip_rotation_l/value	/jointset/back/lumbar_extension/value	/jointset/patellofemoral_l/patellar_flexion_l/value	/jointset/knee_l/knee_flexion_l/value	/jointset/knee_l/knee_adduction_l/value	/jointset/knee_l/knee_rotation_l/value	/jointset/ankle_l/ankle_angle_l/value	/jointset/subtalar_l/subtalar_angle_l/value	/jointset/ground_pelvis/pelvis_tilt/speed	/jointset/ground_pelvis/pelvis_tx/speed	/jointset/ground_pelvis/pelvis_ty/speed	/jointset/hip_l/hip_flexion_l/speed	/jointset/hip_l/hip_adduction_l/speed	/jointset/hip_l/hip_rotation_l/speed	/jointset/back/lumbar_extension/speed	/jointset/patellofemoral_l/patellar_flexion_l/speed	/jointset/knee_l/knee_flexion_l/speed	/jointset/knee_l/knee_adduction_l/speed	/jointset/knee_l/knee_rotation_l/speed	/jointset/ankle_l/ankle_angle_l/speed	/jointset/subtalar_l/subtalar_angle_l/speed	/forceset/tau_hip_flexion_l	/forceset/tau_hip_adduction_l	/forceset/tau_hip_rotation_l	/forceset/tau_knee_flexion_l	/forceset/tau_ankle_angle_l	/forceset/tau_subtalar_angle_l	/forceset/tau_lumbar_extension	lambda_cid13_p0	lambda_cid13_p1	lambda_cid13_p2	lambda_cid13_p3	lambda_cid13_p4	lambda_cid13_p5	lambda_cid14_p0	/jointset/ground_pelvis/pelvis_tilt/accel	/jointset/ground_pelvis/pelvis_tx/accel	/jointset/ground_pelvis/pelvis_ty/accel	/jointset/hip_l/hip_flexion_l/accel	/jointset/hip_l/hip_adduction_l/accel	/jointset/hip_l/hip_rotation_l/accel	/jointset/back/lumbar_extension/accel	/jointset/patellofemoral_l/patellar_flexion_l/accel	/jointset/knee_l/knee_flexion_l/accel	/jointset/knee_l/knee_adduction_l/accel	/jointset/knee_l/knee_rotation_l/accel	/jointset/ankle_l/ankle_angle_l/accel	/jointset/subtalar_l/subtalar_angle_l/accel	gamma_cid13_p0	gamma_cid13_p1	gamma_cid13_p2	gamma_cid13_p3	gamma_cid13_p4	gamma_cid13_p5	gamma_cid14_p0
1	-0.8398424877893923	-0.1612683017656203	0.6090344203942248	2.040888523952393	-0.3353522784320889	0.04903258787597575	-0.4363224807648678	1.072590029389646	1.072590029389588	-0.003446560260142256	-0.1745138283003421	0.001967772398843669	0.08562028210476154	-0.1557119525365624	0.007830482118083671	0.03049989253566879	0.01318621600208419	-0.004854778463170319	-0.05622780897098889	8.710912409794695e-05	-0.159381016853816	-0.1593810168538258	-0.006634612323544278	2.951072373235168e-05	-0.02823446163746254	-0.01267232870646858	-0.3850647958108086	0.005744813293759145	-0.006061689580091704	-0.1291386963135815	0.1122051444926568	0.01057950225165591	0.283630282572782	5.242989472262328	-2.571378071416982	-3.230744772088707	-5.397970362077118	-546.3765567510716	-60.05787494904428	-1.866282580000144	3.263902628729243	0.7132530168828618	1.791082542280035	-7.688489157383939	-0.2327266140514348	-1.293674994612459	-0.02416570466352547	-3.91550651381462	-3.915506513814613	-0.4030310605201813	-0.02335033132863558	0.2410543254390958	-0.1494741404589569	-1.099147311461093e-08	-5.270845470937349e-08	6.459037399159507e-09	2.969858617168621e-09	-1.007605255596572e-08	2.817529383264457e-08	-1.339987991697651e-08
1.01	-0.8412375604778731	-0.1611543950537184	0.6094287243454162	2.04063741832439	-0.3354116707423896	0.04840627342565552	-0.43632154441729	1.070800495524895	1.070800495524877	-0.003532429467193451	-0.1745134727935561	0.001697343194292335	0.08548684690701647	-0.1233026324572174	0.01495736151870595	0.0483476539813433	-0.06338383992101559	-0.007016235288088976	-0.06902925682068664	9.871830920569699e-05	-0.1985151855157131	-0.1985151855157298	-0.01053808979215781	4.232103007726596e-05	-0.0258634919530203	-0.01401072754167746	-0.3851034023893059	0.005936827032892726	-0.006061657764975351	-0.1285265340229207	0.1120797283629802	0.01064196739261046	0.283591563642751	5.231403864832868	-2.609668301156613	-3.209574049779572	-5.586065699437532	-546.1023400569682	-59.99253886423029	-1.901574873462389	3.229437758337585	0.7133799650327929	1.779633667189153	-7.637740689692362	-0.2067307788454001	-1.272520678074602	0.0136079176156645	-3.910783182204419	-3.910783182205466	-0.3838496012638244	0.01371097924319184	0.2332975685665613	-0.1254157812260357	-1.058996481380912e-08	-6.217940402037127e-08	4.825932573411416e-09	-3.064446859477316e-09	-1.356639137281897e-08	3.888696918330209e-08	-1.633576564709496e-08
1.02	-0.8423085417533994	-0.1609690246351342	0.6100011080553601	2.039621316761173	-0.3354924527333661	0.0476521162972542	-0.4363205352403548	1.068619937745561	1.06861993774558	-0.003657302151183977	-0.1745129663301823	0.001450259542310023	0.08534014911568447	-0.0908936699458552	0.02212322345455797	0.06611584428614294	-0.139812971040891	-0.009132714598341694	-0.08179634458743089	0.0001016749950232657	-0.2375857997706964	-0.23758579977072	-0.01443530771004612	5.970204150652176e-05	-0.02356535112378657	-0.01532484742385381	-0.3851420089678028	0.006128840772028884	-0.00606162594991318	-0.1279143717322601	0.111954312233305	0.01070443253356871	0.2835528447127201	5.215919264602713	-2.64877918120083	-3.186555042503381	-5.789834281913665	-545.9143680089226	-59.92536025757457	-1.945073265303572	3.263831115132701	0.7210495239288079	1.775168314105063	-7.660304196739076	-0.2237311111182506	-1.286802978021759	-0.02589620452159824	-3.902795632431853	-3.902795632431851	-0.4017791503751392	-0.02243619031177379	0.2264885543973913	-0.1446183498524583	-1.000287522447968e-08	-7.090967639999557e-08	3.292260216288025e-09	-9.064311195135908e-09	-1.660600250345034e-08	4.880117050810718e-08	-1.904497656386094e-08
1.03	-0.8430554780277238	-0.1607117749580922	0.6107507063094348	2.037841782843739	-0.3355941723496761	0.04677049460401913	-0.4363195556935959	1.066049078168742	1.066049078168756	-0.003821147178852855	-0.1745122911902943	0.001225770210964505	0.08518042589211594	-0.05849945276146983	0.02933562790255729	0.0837835462821365	-0.2160535962542964	-0.01120142881774888	-0.09451795979318628	9.274048107830359e-05	-0.2765670382842428	-0.2765670382842998	-0.01833337997870027	7.640532481119398e-05	-0.02134653854265322	-0.01661408644931433	-0.3847595937252152	0.006350033179990099	-0.006049723532759618	-0.1273230320269492	0.1118653183938199	0.01081812419253787	0.2832714226765178	5.23304838425036	-2.71407109270781	-3.161392181774412	-6.025660758926054	-545.414260069142	-59.89297257008431	-1.997046144136173	3.226333867108497	0.7226702484168753	1.759528158748924	-7.599912648469725	-0.196963921260968	-1.26335481066474	0.01138384368573686	-3.892921997731541	-3.892921997736561	-0.3837929540594442	0.01389099279321679	0.2174698475389232	-0.1202074541278173	-9.413891948532612e-09	-7.963239085174869e-08	1.759602476191416e-09	-1.506382409058034e-08	-1.96410143719774e-08	5.870723434285253e-08	-2.175187447232741e-08
